<?xml version="1.0" encoding="UTF-8"?>
<svg xmlns="http://www.w3.org/2000/svg" xmlns:xlink="http://www.w3.org/1999/xlink" width="521px" height="600px" viewBox="0 0 521 400" version="1.1">
<defs>
<filter id="alpha" filterUnits="objectBoundingBox" x="0%" y="0%" width="100%" height="100%">
  <feColorMatrix type="matrix" in="SourceGraphic" values="0 0 0 0 1 0 0 0 0 1 0 0 0 0 1 0 0 0 1 0"/>
</filter>
<mask id="mask0">
  <g filter="url(#alpha)">
<rect x="0" y="0" width="521" height="400" style="fill:rgb(0%,0%,0%);fill-opacity:0.2;stroke:none;"/>
  </g>
</mask>
<clipPath id="clip1">
  <rect x="0" y="0" width="521" height="401"/>
</clipPath>
<g id="surface5" clip-path="url(#clip1)">
<path style=" stroke:none;fill-rule:nonzero;fill:rgb(0%,0%,0%);fill-opacity:1;" d="M 358.601562 194.679688 L 357.851562 162.019531 L 355.855469 147.519531 L 350.925781 161.882812 Z M 358.601562 194.679688 "/>
</g>
</defs>
<g id="surface1">
<path style=" stroke:none;fill-rule:nonzero;fill:rgb(89.803922%,89.803922%,89.803922%);fill-opacity:1;" d="M 478.808594 345.046875 C 478.808594 347.308594 476.972656 349.144531 474.710938 349.144531 C 472.449219 349.144531 470.613281 347.308594 470.613281 345.046875 C 470.613281 342.78125 472.449219 340.949219 474.710938 340.949219 C 476.972656 340.949219 478.808594 342.78125 478.808594 345.046875 Z M 478.808594 345.046875 "/>
<path style=" stroke:none;fill-rule:nonzero;fill:rgb(89.803922%,89.803922%,89.803922%);fill-opacity:1;" d="M 484.753906 371.609375 L 486.007812 371.609375 L 486.007812 399.195312 L 484.753906 399.195312 Z M 484.753906 371.609375 "/>
<path style=" stroke:none;fill-rule:nonzero;fill:rgb(89.803922%,89.803922%,89.803922%);fill-opacity:1;" d="M 491.976562 361.386719 C 491.976562 365.027344 489.023438 367.984375 485.378906 367.984375 C 481.738281 367.984375 478.785156 365.027344 478.785156 361.386719 C 478.785156 357.742188 481.738281 354.789062 485.378906 354.789062 C 489.023438 354.789062 491.976562 357.742188 491.976562 361.386719 Z M 491.976562 361.386719 "/>
<path style=" stroke:none;fill-rule:nonzero;fill:rgb(89.803922%,89.803922%,89.803922%);fill-opacity:1;" d="M 485.382812 392.644531 C 485.382812 392.644531 484.4375 372.375 465.117188 374.730469 "/>
<path style=" stroke:none;fill-rule:nonzero;fill:rgb(100%,72.156863%,72.156863%);fill-opacity:1;" d="M 385.523438 241.664062 C 383.886719 240.683594 382.769531 239.023438 382.472656 237.136719 C 382.175781 235.25 382.730469 233.332031 383.984375 231.894531 L 375.601562 147.769531 L 389.601562 148.695312 L 393.476562 231.535156 C 395.804688 233.855469 396.03125 237.550781 394 240.132812 C 391.96875 242.71875 388.328125 243.375 385.523438 241.664062 Z M 385.523438 241.664062 "/>
<path style=" stroke:none;fill-rule:nonzero;fill:rgb(18.431373%,18.039216%,25.490196%);fill-opacity:1;" d="M 395.269531 144.652344 L 391.601562 172.546875 L 392.109375 189.640625 L 376.714844 191.050781 L 373.628906 176.832031 L 371.929688 139.191406 C 371.664062 133.300781 375.996094 128.207031 381.855469 127.523438 C 387.949219 126.816406 393.484375 131.128906 394.285156 137.210938 Z M 395.269531 144.652344 "/>
<path style=" stroke:none;fill-rule:nonzero;fill:rgb(89.803922%,89.803922%,89.803922%);fill-opacity:1;" d="M 169.261719 188.21875 L 2.203125 188.21875 C 0.988281 188.21875 0 187.230469 0 186.015625 L 0 2.203125 C 0 0.988281 0.988281 0 2.203125 0 L 169.261719 0 C 170.480469 0 171.464844 0.988281 171.46875 2.203125 L 171.46875 186.015625 C 171.464844 187.230469 170.480469 188.21875 169.261719 188.21875 Z M 169.261719 188.21875 "/>
<path style=" stroke:none;fill-rule:nonzero;fill:rgb(100%,100%,100%);fill-opacity:1;" d="M 81.179688 71.296875 L 20.9375 71.296875 C 19.84375 71.296875 18.957031 70.410156 18.953125 69.316406 L 18.953125 27.878906 C 18.957031 26.785156 19.84375 25.898438 20.9375 25.898438 L 81.179688 25.898438 C 82.277344 25.898438 83.164062 26.785156 83.164062 27.878906 L 83.164062 69.316406 C 83.164062 70.410156 82.277344 71.296875 81.179688 71.296875 Z M 81.179688 71.296875 "/>
<path style=" stroke:none;fill-rule:nonzero;fill:rgb(100%,100%,100%);fill-opacity:1;" d="M 150.53125 94 L 20.9375 94 C 19.84375 94 18.953125 93.109375 18.953125 92.015625 C 18.953125 90.921875 19.84375 90.03125 20.9375 90.03125 L 150.53125 90.03125 C 151.625 90.03125 152.511719 90.921875 152.511719 92.015625 C 152.511719 93.109375 151.625 94 150.53125 94 Z M 150.53125 94 "/>
<path style=" stroke:none;fill-rule:nonzero;fill:rgb(100%,100%,100%);fill-opacity:1;" d="M 119.234375 107.664062 L 20.9375 107.664062 C 19.84375 107.664062 18.953125 106.777344 18.953125 105.679688 C 18.953125 104.585938 19.84375 103.695312 20.9375 103.695312 L 119.234375 103.695312 C 120.328125 103.695312 121.21875 104.585938 121.21875 105.679688 C 121.21875 106.777344 120.328125 107.664062 119.234375 107.664062 Z M 119.234375 107.664062 "/>
<path style=" stroke:none;fill-rule:nonzero;fill:rgb(100%,100%,100%);fill-opacity:1;" d="M 150.089844 43.75 L 92.785156 43.75 C 91.691406 43.746094 90.804688 42.859375 90.804688 41.765625 C 90.804688 40.671875 91.691406 39.785156 92.785156 39.78125 L 150.089844 39.78125 C 151.183594 39.78125 152.074219 40.667969 152.074219 41.765625 C 152.074219 42.859375 151.183594 43.75 150.089844 43.75 Z M 150.089844 43.75 "/>
<path style=" stroke:none;fill-rule:nonzero;fill:rgb(100%,100%,100%);fill-opacity:1;" d="M 135.789062 57.414062 L 92.785156 57.414062 C 91.691406 57.410156 90.804688 56.523438 90.804688 55.429688 C 90.804688 54.335938 91.691406 53.449219 92.785156 53.445312 L 135.789062 53.445312 C 136.882812 53.449219 137.769531 54.335938 137.769531 55.429688 C 137.769531 56.523438 136.882812 57.410156 135.789062 57.414062 Z M 135.789062 57.414062 "/>
<path style=" stroke:none;fill-rule:nonzero;fill:rgb(100%,100%,100%);fill-opacity:1;" d="M 150.53125 121.328125 L 20.9375 121.328125 C 19.84375 121.328125 18.953125 120.441406 18.953125 119.34375 C 18.953125 118.25 19.84375 117.359375 20.9375 117.359375 L 150.53125 117.359375 C 151.625 117.359375 152.511719 118.25 152.511719 119.34375 C 152.511719 120.441406 151.625 121.328125 150.53125 121.328125 Z M 150.53125 121.328125 "/>
<path style=" stroke:none;fill-rule:nonzero;fill:rgb(100%,100%,100%);fill-opacity:1;" d="M 119.234375 134.992188 L 20.9375 134.992188 C 19.84375 134.992188 18.957031 134.101562 18.957031 133.007812 C 18.957031 131.914062 19.84375 131.027344 20.9375 131.027344 L 119.234375 131.027344 C 120.328125 131.027344 121.21875 131.914062 121.21875 133.007812 C 121.21875 134.105469 120.328125 134.992188 119.234375 134.992188 Z M 119.234375 134.992188 "/>
<path style=" stroke:none;fill-rule:nonzero;fill:rgb(100%,100%,100%);fill-opacity:1;" d="M 150.53125 148.65625 L 20.9375 148.65625 C 19.84375 148.65625 18.957031 147.769531 18.957031 146.675781 C 18.957031 145.578125 19.84375 144.691406 20.9375 144.691406 L 150.53125 144.691406 C 151.625 144.691406 152.511719 145.578125 152.511719 146.675781 C 152.511719 147.769531 151.625 148.65625 150.53125 148.65625 Z M 150.53125 148.65625 "/>
<path style=" stroke:none;fill-rule:nonzero;fill:rgb(100%,100%,100%);fill-opacity:1;" d="M 150.53125 162.320312 L 20.9375 162.320312 C 19.84375 162.320312 18.953125 161.433594 18.953125 160.339844 C 18.953125 159.242188 19.84375 158.355469 20.9375 158.355469 L 150.53125 158.355469 C 151.625 158.355469 152.511719 159.242188 152.511719 160.339844 C 152.511719 161.433594 151.625 162.320312 150.53125 162.320312 Z M 150.53125 162.320312 "/>
<path style=" stroke:none;fill-rule:nonzero;fill:rgb(100%,100%,100%);fill-opacity:1;" d="M 236.347656 226.464844 L 69.289062 226.464844 C 68.070312 226.460938 67.085938 225.476562 67.085938 224.257812 L 67.085938 40.449219 C 67.085938 39.230469 68.070312 38.246094 69.289062 38.246094 L 236.347656 38.246094 C 237.5625 38.246094 238.550781 39.230469 238.550781 40.449219 L 238.550781 224.257812 C 238.550781 225.476562 237.5625 226.460938 236.347656 226.464844 Z M 236.347656 226.464844 "/>
<path style=" stroke:none;fill-rule:nonzero;fill:rgb(24.705882%,23.921569%,33.72549%);fill-opacity:1;" d="M 236.347656 226.464844 L 69.289062 226.464844 C 68.070312 226.460938 67.085938 225.476562 67.085938 224.257812 L 67.085938 40.449219 C 67.085938 39.230469 68.070312 38.246094 69.289062 38.246094 L 236.347656 38.246094 C 237.5625 38.246094 238.550781 39.230469 238.550781 40.449219 L 238.550781 224.257812 C 238.550781 225.476562 237.5625 226.460938 236.347656 226.464844 Z M 69.289062 39.125 C 68.558594 39.125 67.964844 39.71875 67.964844 40.449219 L 67.964844 224.257812 C 67.964844 224.988281 68.558594 225.582031 69.289062 225.582031 L 236.347656 225.582031 C 237.078125 225.582031 237.667969 224.988281 237.671875 224.257812 L 237.671875 40.449219 C 237.667969 39.71875 237.078125 39.125 236.347656 39.125 Z M 69.289062 39.125 "/>
<path style=" stroke:none;fill-rule:nonzero;fill:rgb(42.352941%,38.823529%,100%);fill-opacity:1;" d="M 148.265625 110.976562 L 88.023438 110.976562 C 86.925781 110.972656 86.039062 110.085938 86.039062 108.992188 L 86.039062 67.558594 C 86.039062 66.460938 86.925781 65.574219 88.023438 65.574219 L 148.265625 65.574219 C 149.359375 65.574219 150.246094 66.460938 150.25 67.558594 L 150.25 108.992188 C 150.246094 110.085938 149.359375 110.972656 148.265625 110.976562 Z M 148.265625 110.976562 "/>
<path style=" stroke:none;fill-rule:nonzero;fill:rgb(80%,80%,80%);fill-opacity:1;" d="M 217.613281 133.675781 L 88.023438 133.675781 C 86.925781 133.675781 86.039062 132.789062 86.039062 131.691406 C 86.039062 130.597656 86.925781 129.710938 88.023438 129.710938 L 217.613281 129.710938 C 218.710938 129.710938 219.597656 130.597656 219.597656 131.691406 C 219.597656 132.789062 218.710938 133.675781 217.613281 133.675781 Z M 217.613281 133.675781 "/>
<path style=" stroke:none;fill-rule:nonzero;fill:rgb(80%,80%,80%);fill-opacity:1;" d="M 186.316406 147.339844 L 88.023438 147.339844 C 86.925781 147.339844 86.039062 146.453125 86.039062 145.355469 C 86.039062 144.261719 86.925781 143.375 88.023438 143.375 L 186.316406 143.375 C 187.414062 143.375 188.300781 144.261719 188.300781 145.355469 C 188.300781 146.453125 187.414062 147.339844 186.316406 147.339844 Z M 186.316406 147.339844 "/>
<path style=" stroke:none;fill-rule:nonzero;fill:rgb(42.352941%,38.823529%,100%);fill-opacity:1;" d="M 217.171875 83.425781 L 159.871094 83.425781 C 158.773438 83.425781 157.886719 82.539062 157.886719 81.441406 C 157.886719 80.347656 158.773438 79.457031 159.871094 79.457031 L 217.171875 79.457031 C 218.269531 79.457031 219.15625 80.347656 219.15625 81.441406 C 219.15625 82.539062 218.269531 83.425781 217.171875 83.425781 Z M 217.171875 83.425781 "/>
<path style=" stroke:none;fill-rule:nonzero;fill:rgb(42.352941%,38.823529%,100%);fill-opacity:1;" d="M 202.871094 97.089844 L 159.871094 97.089844 C 158.777344 97.089844 157.890625 96.199219 157.890625 95.105469 C 157.890625 94.011719 158.777344 93.125 159.871094 93.125 L 202.871094 93.125 C 203.964844 93.125 204.851562 94.011719 204.851562 95.105469 C 204.851562 96.199219 203.964844 97.089844 202.871094 97.089844 Z M 202.871094 97.089844 "/>
<path style=" stroke:none;fill-rule:nonzero;fill:rgb(80%,80%,80%);fill-opacity:1;" d="M 217.613281 161.003906 L 88.023438 161.003906 C 86.925781 161.003906 86.039062 160.117188 86.039062 159.023438 C 86.039062 157.925781 86.925781 157.039062 88.023438 157.039062 L 217.613281 157.039062 C 218.710938 157.039062 219.597656 157.925781 219.597656 159.023438 C 219.597656 160.117188 218.710938 161.003906 217.613281 161.003906 Z M 217.613281 161.003906 "/>
<path style=" stroke:none;fill-rule:nonzero;fill:rgb(80%,80%,80%);fill-opacity:1;" d="M 186.316406 174.671875 L 88.023438 174.671875 C 86.925781 174.667969 86.042969 173.78125 86.042969 172.6875 C 86.042969 171.59375 86.925781 170.703125 88.023438 170.703125 L 186.316406 170.703125 C 187.414062 170.703125 188.300781 171.589844 188.300781 172.6875 C 188.300781 173.78125 187.414062 174.671875 186.316406 174.671875 Z M 186.316406 174.671875 "/>
<path style=" stroke:none;fill-rule:nonzero;fill:rgb(80%,80%,80%);fill-opacity:1;" d="M 217.613281 188.335938 L 88.023438 188.335938 C 86.925781 188.332031 86.042969 187.445312 86.042969 186.351562 C 86.042969 185.257812 86.925781 184.371094 88.023438 184.367188 L 217.613281 184.367188 C 218.710938 184.367188 219.597656 185.253906 219.597656 186.351562 C 219.597656 187.445312 218.710938 188.335938 217.613281 188.335938 Z M 217.613281 188.335938 "/>
<path style=" stroke:none;fill-rule:nonzero;fill:rgb(80%,80%,80%);fill-opacity:1;" d="M 217.613281 202 L 88.023438 202 C 86.925781 202 86.039062 201.109375 86.039062 200.015625 C 86.039062 198.921875 86.925781 198.03125 88.023438 198.03125 L 217.613281 198.03125 C 218.710938 198.03125 219.597656 198.921875 219.597656 200.015625 C 219.597656 201.109375 218.710938 202 217.613281 202 Z M 217.613281 202 "/>
<path style=" stroke:none;fill-rule:nonzero;fill:rgb(24.705882%,23.921569%,33.72549%);fill-opacity:1;" d="M 223.90625 25.808594 L 223.285156 30.992188 C 213.351562 17.347656 199.59375 9.023438 182.351562 6.238281 L 186.699219 3.339844 L 186.003906 2.296875 L 179.738281 6.476562 L 184.363281 12.421875 L 185.355469 11.652344 L 182.101562 7.46875 C 199.046875 10.195312 212.566406 18.367188 222.308594 31.78125 L 217.101562 30.765625 L 216.863281 31.996094 L 224.253906 33.4375 L 225.152344 25.960938 Z M 223.90625 25.808594 "/>
<path style=" stroke:none;fill-rule:nonzero;fill:rgb(100%,71.764706%,71.764706%);fill-opacity:1;" d="M 336.3125 390.078125 L 326.972656 390.078125 L 322.527344 354.054688 L 336.3125 354.054688 Z M 336.3125 390.078125 "/>
<path style=" stroke:none;fill-rule:nonzero;fill:rgb(18.431373%,18.039216%,25.490196%);fill-opacity:1;" d="M 338.691406 399.132812 L 308.578125 399.128906 L 308.578125 398.75 C 308.578125 392.277344 313.828125 387.027344 320.300781 387.027344 L 338.691406 387.03125 Z M 338.691406 399.132812 "/>
<path style=" stroke:none;fill-rule:nonzero;fill:rgb(100%,71.764706%,71.764706%);fill-opacity:1;" d="M 413.425781 390.078125 L 404.085938 390.078125 L 399.644531 354.054688 L 413.429688 354.054688 Z M 413.425781 390.078125 "/>
<path style=" stroke:none;fill-rule:nonzero;fill:rgb(18.431373%,18.039216%,25.490196%);fill-opacity:1;" d="M 415.808594 399.132812 L 385.695312 399.128906 L 385.695312 398.75 C 385.695312 392.277344 390.941406 387.027344 397.414062 387.027344 L 397.417969 387.027344 L 415.808594 387.03125 Z M 415.808594 399.132812 "/>
<path style=" stroke:none;fill-rule:nonzero;fill:rgb(100%,72.156863%,72.156863%);fill-opacity:1;" d="M 396.808594 89.324219 C 399.398438 100.203125 392.679688 111.125 381.800781 113.714844 C 370.925781 116.304688 360.003906 109.589844 357.414062 98.710938 C 354.820312 87.832031 361.539062 76.910156 372.417969 74.320312 C 383.296875 71.730469 394.214844 78.445312 396.808594 89.324219 Z M 396.808594 89.324219 "/>
<path style=" stroke:none;fill-rule:nonzero;fill:rgb(18.431373%,18.039216%,25.490196%);fill-opacity:1;" d="M 374.492188 122.488281 L 388.546875 124.09375 C 395.476562 133.921875 397.257812 146.488281 393.328125 157.859375 L 382.722656 188.53125 C 382.722656 188.53125 397.441406 218.039062 397.441406 245.433594 C 397.441406 272.828125 425.472656 370.617188 425.472656 370.617188 L 386.015625 374.730469 L 368.800781 270.558594 L 345.078125 374.3125 L 317.992188 369.902344 L 332.910156 233.871094 L 342.769531 189.097656 L 343.1875 167.265625 C 343.1875 167.265625 338.996094 150.878906 349.484375 140.390625 L 362.292969 122.542969 Z M 374.492188 122.488281 "/>
<path style=" stroke:none;fill-rule:nonzero;fill:rgb(100%,72.156863%,72.156863%);fill-opacity:1;" d="M 362.226562 245.066406 C 360.496094 243.890625 359.371094 242.011719 359.160156 239.929688 C 358.949219 237.847656 359.667969 235.78125 361.128906 234.28125 L 356.957031 141.746094 L 372.214844 143.59375 L 371.535156 234.453125 C 373.941406 237.132812 373.96875 241.1875 371.59375 243.894531 C 369.21875 246.601562 365.195312 247.105469 362.226562 245.066406 Z M 362.226562 245.066406 "/>
<path style=" stroke:none;fill-rule:nonzero;fill:rgb(18.431373%,18.039216%,25.490196%);fill-opacity:1;" d="M 378.660156 139.507812 L 372.988281 169.804688 L 372.527344 188.539062 L 355.601562 189.164062 L 353.070312 173.425781 L 353.449219 132.140625 C 353.507812 125.683594 358.550781 120.367188 365 119.96875 C 371.707031 119.558594 377.507812 124.605469 378.027344 131.304688 Z M 378.660156 139.507812 "/>
<path style=" stroke:none;fill-rule:nonzero;fill:rgb(18.431373%,18.039216%,25.490196%);fill-opacity:1;" d="M 353.507812 86.785156 L 383.261719 86.785156 L 383.261719 73.816406 C 376.730469 71.222656 370.339844 69.015625 366.476562 73.816406 C 359.3125 73.816406 353.507812 79.625 353.507812 86.785156 Z M 353.507812 86.785156 "/>
<path style=" stroke:none;fill-rule:nonzero;fill:rgb(18.431373%,18.039216%,25.490196%);fill-opacity:1;" d="M 384.90625 71.527344 C 402.695312 71.527344 407.675781 93.824219 407.675781 106.402344 C 407.675781 113.417969 404.5 115.925781 399.515625 116.773438 L 397.757812 107.386719 L 393.632812 117.179688 C 392.234375 117.1875 390.761719 117.160156 389.234375 117.128906 L 387.839844 114.25 L 384.71875 117.078125 C 372.234375 117.097656 362.140625 118.917969 362.140625 106.402344 C 362.140625 93.824219 366.507812 71.527344 384.90625 71.527344 Z M 384.90625 71.527344 "/>
<use xlink:href="#surface5" mask="url(#mask0)"/>
<path style=" stroke:none;fill-rule:nonzero;fill:rgb(79.607843%,79.607843%,79.607843%);fill-opacity:1;" d="M 520.089844 399.824219 L 281.21875 399.824219 C 280.871094 399.824219 280.589844 399.542969 280.589844 399.195312 C 280.589844 398.851562 280.871094 398.570312 281.21875 398.570312 L 520.089844 398.570312 C 520.433594 398.570312 520.714844 398.851562 520.714844 399.195312 C 520.714844 399.542969 520.433594 399.824219 520.089844 399.824219 Z M 520.089844 399.824219 "/>
</g>
</svg>
